<svg xmlns="http://www.w3.org/2000/svg" xmlns:xlink="http://www.w3.org/1999/xlink" viewBox="0 0 124 384" width="124" height="384">
  <style>
    .black { fill: black; }
    .white { fill: white; }
  </style>
  <symbol id="common--arrow-left" viewBox="0 0 28 48">
    <path d="M24 48a3.989 3.989 0 01-2.828-1.172l-20-20a4 4 0 010-5.657l20-20a4 4 0 015.657 5.657L9.657 24 26.829 41.17A4 4 0 0124 48z"/>
  </symbol>
  <symbol id="common--arrow-right" viewBox="0 0 28 48">
    <path d="M4 48a4 4 0 01-2.828-6.829L18.343 24 1.172 6.828a4 4 0 015.657-5.657l20 20a4 4 0 010 5.657l-20 20A3.989 3.989 0 014 48z"/>
  </symbol>
  <symbol id="common--next" viewBox="0 0 48 36">
    <path d="M46.829 15.172l-14-14a4 4 0 0 0-5.658 5.656L34.343 14H4a4 4 0 0 0 0 8h30.343l-7.172 7.172a4 4 0 1 0 5.658 5.656l14-14a4 4 0 0 0 0-5.656z"/>
  </symbol>
  <symbol id="common--previous" viewBox="0 0 48 36">
    <path d="M44 14H13.657l7.172-7.172a4 4 0 0 0-5.657-5.656l-14 14a4 4 0 0 0 0 5.656l14 14a4 4 0 1 0 5.657-5.656L13.657 22H44a4 4 0 0 0 0-8z"/>
  </symbol>
  <symbol id="group-common" viewBox="0 0 48 192">
    <use xlink:href="#common--arrow-left" width="48" height="48"/>
    <use xlink:href="#common--arrow-right" width="48" height="48" y="48"/>
    <use xlink:href="#common--next" width="48" height="48" y="96"/>
    <use xlink:href="#common--previous" width="48" height="48" y="144"/>
  </symbol>
  <symbol id="group-common--12" viewBox="0 0 24 48">
    <use xlink:href="#group-common" width="12" height="48" class="black"/>
    <use xlink:href="#group-common" width="12" height="48" x="12" class="white"/>
  </symbol>
  <symbol id="group-common--18" viewBox="0 0 36 72">
    <use xlink:href="#group-common" width="18" height="72" class="black"/>
    <use xlink:href="#group-common" width="18" height="72" x="18" class="white"/>
  </symbol>
  <symbol id="social-media--facebook-def" viewBox="0 0 48 48">
    <path d="M24,5A19,19,0,1,1,5,24,19,19,0,0,1,24,5m0-3A22,22,0,1,0,46,24,22,22,0,0,0,24,2Z"/>
    <path d="M29.16,13H25.64c-2.09,0-4.41.88-4.41,3.9,0,1.05,0,2.06,0,3.2H18.82v3.84h2.49V35h4.57V23.87h3l.27-3.78H25.81s0-1.68,0-2.17c0-1.2,1.24-1.13,1.32-1.13h2V13h0Z"/>
  </symbol>
  <symbol id="social-media--facebook-full" viewBox="0 0 48 48">
    <path d="M24,2A22,22,0,1,0,46,24,22,22,0,0,0,24,2Zm4.9,21.87h-3V35H21.31V23.94H18.82V20.1h2.41c0-1.14,0-2.15,0-3.2,0-3,2.32-3.9,4.41-3.9h3.52v3.79h-2c-.07,0-1.32-.07-1.32,1.13,0,.49,0,2.17,0,2.17h3.37Z"/>
  </symbol>
  <symbol id="social-media--instagram-def" viewBox="0 0 48 48">
    <path d="M24,2A22,22,0,1,0,46,24,22,22,0,0,0,24,2Zm0,41A19,19,0,1,1,43,24,19,19,0,0,1,24,43Z"/>
    <path d="M24,18.09A5.91,5.91,0,1,0,29.91,24,5.9,5.9,0,0,0,24,18.09Zm0,9.74A3.83,3.83,0,1,1,27.83,24,3.83,3.83,0,0,1,24,27.83Z"/>
    <circle cx="30.14" cy="17.86" r="1.38"/>
    <path d="M34.9,16.47a5.88,5.88,0,0,0-3.36-3.36,8.43,8.43,0,0,0-2.79-.53c-1.23-.06-1.62-.07-4.74-.07s-3.52,0-4.74.07a8.44,8.44,0,0,0-2.79.53,5.88,5.88,0,0,0-3.36,3.36,8.44,8.44,0,0,0-.53,2.79c-.06,1.23-.07,1.62-.07,4.74s0,3.52.07,4.74a8.44,8.44,0,0,0,.53,2.79,5.88,5.88,0,0,0,3.36,3.36,8.44,8.44,0,0,0,2.79.53c1.23.06,1.62.07,4.74.07s3.52,0,4.74-.07a8.44,8.44,0,0,0,2.79-.53,5.88,5.88,0,0,0,3.36-3.36,8.41,8.41,0,0,0,.53-2.79c.06-1.23.07-1.62.07-4.74s0-3.52-.07-4.74A8.44,8.44,0,0,0,34.9,16.47ZM33.36,28.65a6.38,6.38,0,0,1-.4,2.14A3.81,3.81,0,0,1,30.78,33a6.35,6.35,0,0,1-2.14.4c-1.21.06-1.58.07-4.65.07s-3.43,0-4.65-.07a6.35,6.35,0,0,1-2.14-.4A3.81,3.81,0,0,1,15,30.78a6.35,6.35,0,0,1-.4-2.14c-.06-1.21-.07-1.58-.07-4.65s0-3.43.07-4.65a6.38,6.38,0,0,1,.4-2.14A3.81,3.81,0,0,1,17.22,15a6.35,6.35,0,0,1,2.14-.4c1.21-.06,1.58-.07,4.65-.07s3.43,0,4.65.07a6.38,6.38,0,0,1,2.14.4A3.81,3.81,0,0,1,33,17.22a6.35,6.35,0,0,1,.4,2.14c.06,1.21.07,1.58.07,4.65S33.42,27.43,33.36,28.65Z"/>
  </symbol>
  <symbol id="social-media--instagram-full" viewBox="0 0 48 48">
    <circle cx="24" cy="24" r="3.83"/>
    <path d="M33,17.22A3.81,3.81,0,0,0,30.78,15a6.38,6.38,0,0,0-2.14-.4c-1.21-.05-1.58-.07-4.65-.07s-3.43,0-4.65.07a6.35,6.35,0,0,0-2.14.4A3.81,3.81,0,0,0,15,17.22a6.38,6.38,0,0,0-.4,2.14c-.05,1.21-.07,1.58-.07,4.65s0,3.44.07,4.65a6.36,6.36,0,0,0,.4,2.14A3.81,3.81,0,0,0,17.22,33a6.35,6.35,0,0,0,2.14.4c1.21.06,1.58.07,4.65.07s3.44,0,4.65-.07a6.35,6.35,0,0,0,2.14-.4A3.81,3.81,0,0,0,33,30.78a6.38,6.38,0,0,0,.4-2.14c.06-1.21.07-1.58.07-4.65s0-3.43-.07-4.65A6.35,6.35,0,0,0,33,17.22ZM24,29.91A5.91,5.91,0,1,1,29.91,24,5.9,5.9,0,0,1,24,29.91Zm6.14-10.66a1.38,1.38,0,1,1,1.38-1.38A1.38,1.38,0,0,1,30.14,19.24Z"/>
    <path d="M24,2A22,22,0,1,0,46,24,22,22,0,0,0,24,2ZM35.43,28.74a8.41,8.41,0,0,1-.53,2.79,5.88,5.88,0,0,1-3.36,3.36,8.44,8.44,0,0,1-2.79.53c-1.23.06-1.62.07-4.74.07s-3.51,0-4.74-.07a8.44,8.44,0,0,1-2.79-.53,5.88,5.88,0,0,1-3.36-3.36,8.44,8.44,0,0,1-.53-2.79c-.06-1.23-.07-1.62-.07-4.74s0-3.52.07-4.74a8.44,8.44,0,0,1,.53-2.79,5.88,5.88,0,0,1,3.36-3.36,8.44,8.44,0,0,1,2.79-.53c1.23-.06,1.62-.07,4.74-.07s3.51,0,4.74.07a8.43,8.43,0,0,1,2.79.53,5.88,5.88,0,0,1,3.36,3.36,8.44,8.44,0,0,1,.53,2.79c.06,1.23.07,1.62.07,4.74S35.49,27.51,35.43,28.74Z"/>
  </symbol>
  <symbol id="social-media--twitter-def" viewBox="0 0 48 48">
    <path d="M97.072 75.11a5.027 5.027 0 1 1-5.027 5.026 5.027 5.027 0 0 1 5.027-5.027m0-.794a5.82 5.82 0 1 0 5.821 5.821 5.82 5.82 0 0 0-5.82-5.82z" transform="matrix(3.77953 0 0 3.77953 -342.89 -278.875)"/>
    <path d="M714.163 519.284 1160.89 0h-105.86L667.137 450.887 357.328 0H0l468.492 681.821L0 1226.37h105.866l409.625-476.152 327.181 476.152H1200L714.137 519.284zM569.165 687.828l-47.468-67.894-377.686-540.24h162.604l304.797 435.991 47.468 67.894 396.2 566.721H892.476L569.165 687.854z" transform="translate(11.484 11.154) scale(.02075)"/>
  </symbol>
  <symbol id="social-media--twitter-full" viewBox="0 0 48 48">
    <path d="M23.988 2.018a22 22 0 0 0-22 22 22 22 0 0 0 22 22 22 22 0 0 0 22-22 22 22 0 0 0-22-22zm-12.724 9.164h7.416l6.427 9.355 8.051-9.355h2.196l-9.27 10.775 10.082 14.674H28.75l-6.79-9.881-8.5 9.88h-2.196l9.722-11.3-9.722-14.148zm2.988 1.652 7.838 11.21.984 1.411 6.71 9.596h3.374l-8.22-11.76-.987-1.408-6.324-9.049h-3.375z"/>
  </symbol>
  <symbol id="group-social-media" viewBox="0 0 48 288">
    <use xlink:href="#social-media--facebook-def" width="48" height="48"/>
    <use xlink:href="#social-media--facebook-full" width="48" height="48" y="48"/>
    <use xlink:href="#social-media--instagram-def" width="48" height="48" y="96"/>
    <use xlink:href="#social-media--instagram-full" width="48" height="48" y="144"/>
    <use xlink:href="#social-media--twitter-def" width="48" height="48" y="192"/>
    <use xlink:href="#social-media--twitter-full" width="48" height="48" y="240"/>
  </symbol>
  <symbol id="group-social-media--64" viewBox="0 0 64 384">
    <use xlink:href="#group-social-media" width="64" height="384" class="white"/>
  </symbol>
  <use xlink:href="#group-common--12" width="24" height="48"/>
  <use xlink:href="#group-common--18" width="36" height="72" x="24"/>
  <use xlink:href="#group-social-media--64" width="64" height="384" x="60"/>
</svg>